<svg width="50" height="50" viewBox="0 0 50 50" fill="none" xmlns="http://www.w3.org/2000/svg">
<g clip-path="url(#clip0_280_251)">
<path d="M31.2503 39.0625C31.0446 39.0637 30.8408 39.0243 30.6504 38.9466C30.46 38.8688 30.2869 38.7542 30.1409 38.6094L17.6409 26.1094C17.4944 25.9642 17.3782 25.7914 17.2989 25.6009C17.2196 25.4105 17.1787 25.2063 17.1787 25C17.1787 24.7938 17.2196 24.5895 17.2989 24.3991C17.3782 24.2087 17.4944 24.0359 17.6409 23.8907L30.1409 11.3907C30.4351 11.0964 30.8342 10.9312 31.2503 10.9312C31.6664 10.9312 32.0654 11.0964 32.3596 11.3907C32.6539 11.6849 32.8192 12.0839 32.8192 12.5C32.8192 12.9161 32.6539 13.3152 32.3596 13.6094L20.9534 25L32.3596 36.3907C32.5061 36.5359 32.6223 36.7087 32.7017 36.8991C32.781 37.0895 32.8218 37.2938 32.8218 37.5C32.8218 37.7063 32.781 37.9105 32.7017 38.1009C32.6223 38.2913 32.5061 38.4642 32.3596 38.6094C32.2136 38.7542 32.0405 38.8688 31.8501 38.9466C31.6598 39.0243 31.4559 39.0637 31.2503 39.0625Z" fill="#0F172A"/>
</g>
<defs>
<clipPath id="clip0_280_251">
<rect width="50" height="50" fill="white"/>
</clipPath>
</defs>
</svg>
