<svg width="24" height="24" viewBox="0 0 24 24" fill="none" xmlns="http://www.w3.org/2000/svg">
<g clip-path="url(#clip0_280_297)">
<path d="M22.8482 17.2079L19.9442 14.2799C19.4642 13.7999 18.8162 13.5119 18.2162 13.5119C17.5682 13.5119 16.9922 13.7759 16.4882 14.2799L14.8082 15.9599C14.7362 15.9119 14.6402 15.8639 14.5682 15.8399C14.5682 15.8399 14.5442 15.8399 14.5442 15.8159L14.5202 15.7919C14.3042 15.6479 14.0642 15.5039 13.7762 15.3839C12.3122 14.4719 10.9442 13.1999 9.55221 11.4959C8.90421 10.6799 8.44821 9.95994 8.08821 9.16794C8.47221 8.85594 8.76021 8.54394 8.97621 8.30394L9.72021 7.55994C10.2962 7.03194 10.5842 6.43194 10.5842 5.80794C10.5842 5.15994 10.2962 4.55994 9.74421 3.98394L7.46421 1.70394C7.24821 1.48794 7.03221 1.27194 6.79221 1.05594C6.31221 0.599937 5.71221 0.335938 5.08821 0.335938C4.39221 0.335938 3.81621 0.575937 3.28821 1.10394L1.53621 2.85594C0.840208 3.50394 0.432208 4.31994 0.336208 5.32794V5.35194C0.288208 6.59994 0.480207 7.75194 1.00821 9.19194C1.84821 11.4479 3.12021 13.5599 5.01621 15.8879C7.48821 18.6719 10.2722 20.8319 13.3682 22.3199L13.4402 22.3439C14.3522 22.7519 16.0802 23.5199 18.0002 23.6399H18.2642C19.5362 23.6399 20.4962 23.2319 21.2882 22.3679C21.5762 22.0319 21.8882 21.7199 22.1522 21.4319C22.3682 21.2639 22.5122 21.0959 22.6562 20.9279L22.8482 20.7359L22.8962 20.6879C23.9042 19.5839 23.9042 18.2399 22.8482 17.2079ZM22.0082 19.8719L21.7682 20.1119L21.7442 20.1599C21.6242 20.3039 21.5282 20.4239 21.4082 20.5199L21.3362 20.5919C21.0482 20.8799 20.7122 21.2159 20.3762 21.5999C19.8242 22.1999 19.2002 22.4639 18.2642 22.4639H18.0722C16.3922 22.3439 14.8562 21.6719 13.9442 21.2639L13.8962 21.2399C10.9442 19.8239 8.28021 17.7599 5.95221 15.1199C4.12821 12.9119 2.92821 10.8959 2.13621 8.78394C1.65621 7.46394 1.48821 6.50394 1.53621 5.42394C1.60821 4.72794 1.87221 4.17594 2.35221 3.74394L4.12821 1.96794C4.41621 1.67994 4.70421 1.55994 5.06421 1.55994C5.37621 1.55994 5.66421 1.70394 5.92821 1.94394L5.95221 1.96794C6.16821 2.15994 6.38421 2.37594 6.60021 2.59194L8.88021 4.87194C9.31221 5.30394 9.38421 5.63994 9.38421 5.83194C9.38421 6.02394 9.33621 6.31194 8.88021 6.71994L8.11221 7.48794C7.84821 7.77594 7.53621 8.08794 7.12821 8.42394L7.08021 8.47194L7.03221 8.54394C6.81621 8.83194 6.79221 9.09594 6.91221 9.47994L6.93621 9.57594L6.96021 9.67194C7.36821 10.5599 7.87221 11.3759 8.59221 12.2879C10.0802 14.1119 11.5682 15.4799 13.1522 16.4639L13.2242 16.5119C13.4162 16.6079 13.6082 16.7039 13.7762 16.7999C13.8482 16.8719 13.9442 16.9199 14.0162 16.9439C14.1122 16.9919 14.1842 17.0159 14.2322 17.0639L14.4002 17.1839H14.4482L14.5202 17.2079C14.6642 17.2559 14.7602 17.2559 14.8322 17.2559C15.0722 17.2559 15.2882 17.1599 15.5042 16.9439L17.3042 15.1439C17.5922 14.8559 17.8562 14.7359 18.1922 14.7359C18.5522 14.7359 18.8882 14.9519 19.0802 15.1439L22.0082 18.0719C22.5842 18.6479 22.6082 19.2479 22.0082 19.8719Z" fill="#6813B3"/>
</g>
<defs>
<clipPath id="clip0_280_297">
<rect width="24" height="24" fill="white"/>
</clipPath>
</defs>
</svg>
